<svg width="40" height="40" viewBox="0 0 40 40" fill="none" xmlns="http://www.w3.org/2000/svg">
<path d="M20 40C31.0457 40 40 31.0457 40 20C40 8.95431 31.0457 0 20 0C8.95431 0 0 8.95431 0 20C0 31.0457 8.95431 40 20 40Z" fill="white"/>
<path d="M6.96405 20.8968C6.8931 24.3379 9.26324 27.6218 12.5236 28.6928C15.5947 29.7245 19.3706 28.9527 21.4141 26.3226C22.9062 24.4798 23.2452 22.023 23.0837 19.7278C20.4537 19.7042 17.8236 19.7121 15.1975 19.716C15.1932 20.6529 15.1975 21.5863 15.2014 22.5232C16.7762 22.5667 18.3513 22.5468 19.926 22.5785C19.5285 23.9407 18.6229 25.2085 17.2486 25.7005C14.595 26.8699 11.2091 25.3422 10.3742 22.5585C9.36627 19.8928 11.0162 16.676 13.7404 15.9005C15.4296 15.3062 17.1698 15.9754 18.6151 16.8535C19.3474 16.1683 20.0326 15.436 20.7057 14.6958C19.0636 13.3218 16.9534 12.4794 14.7839 12.6644C10.5275 12.715 6.80255 16.6446 6.96405 20.8968Z" fill="white"/>
<path d="M28.2006 17.3524C28.1927 18.136 28.1845 18.9236 28.1806 19.7069C27.3931 19.7147 26.6098 19.7186 25.8262 19.7226C25.8262 20.5062 25.8262 21.2855 25.8262 22.0692C26.6098 22.0731 27.3973 22.077 28.1806 22.0852C28.1885 22.8688 28.1885 23.6521 28.1963 24.4397C28.976 24.4397 29.7596 24.4357 30.5429 24.4397C30.5472 23.6521 30.5508 22.8688 30.559 22.0813C31.3422 22.0774 32.1298 22.0734 32.9134 22.0695C32.9134 21.2859 32.9134 20.5065 32.9134 19.7229C32.1301 19.719 31.3426 19.7151 30.559 19.7072C30.5547 18.9236 30.5472 18.136 30.5429 17.3528C29.7596 17.3524 28.9799 17.3524 28.2006 17.3524Z" fill="white"/>
<path d="M6.96405 20.8962C6.80255 16.644 10.5271 12.7144 14.7836 12.6634C16.953 12.4784 19.0636 13.3208 20.7054 14.6949C20.0319 15.4354 19.3467 16.1673 18.6147 16.8525C17.1694 15.9744 15.4292 15.3052 13.74 15.8995C11.0155 16.6753 9.36556 19.8922 10.3738 22.5575C11.2088 25.3412 14.5946 26.8689 17.2482 25.6995C18.6222 25.2075 19.5281 23.9398 19.9257 22.5775C18.3509 22.5461 16.7758 22.5657 15.2011 22.5222C15.1971 21.5853 15.1932 20.6519 15.1971 19.715C17.8233 19.7111 20.4533 19.7033 23.0833 19.7268C23.2448 22.0224 22.9061 24.4792 21.4138 26.3217C19.3702 28.9517 15.5947 29.7236 12.5232 28.6918C9.2636 27.6212 6.8931 24.3373 6.96405 20.8962Z" fill="#349E5B"/>
<path d="M28.2006 17.3524C28.9803 17.3524 29.7596 17.3524 30.5429 17.3524C30.5472 18.136 30.5547 18.9236 30.559 19.7069C31.3422 19.7147 32.1298 19.7186 32.9134 19.7226C32.9134 20.5062 32.9134 21.2855 32.9134 22.0692C32.1301 22.0731 31.3426 22.077 30.559 22.0809C30.5511 22.8685 30.5472 23.6517 30.5429 24.4393C29.7596 24.4354 28.9757 24.4393 28.1963 24.4393C28.1888 23.6517 28.1888 22.8685 28.1806 22.0848C27.3973 22.0766 26.6098 22.0731 25.8262 22.0688C25.8262 21.2852 25.8262 20.5058 25.8262 19.7222C26.6098 19.7183 27.3934 19.7144 28.1806 19.7065C28.1845 18.9236 28.1924 18.136 28.2006 17.3524Z" fill="#349E5B"/>
</svg>
