<svg width="40" height="40" viewBox="0 0 40 40" fill="none" xmlns="http://www.w3.org/2000/svg">
<path d="M20 40C31.0457 40 40 31.0457 40 20C40 8.95431 31.0457 0 20 0C8.95431 0 0 8.95431 0 20C0 31.0457 8.95431 40 20 40Z" fill="white"/>
<path d="M31.9499 21.6103V29.8559H27.1694V22.1629C27.1694 20.2313 26.4792 18.9122 24.7483 18.9122C23.4274 18.9122 22.6427 19.8003 22.2961 20.6602C22.1703 20.9675 22.1378 21.3943 22.1378 21.8253V29.8555H17.3569C17.3569 29.8555 17.4211 16.8262 17.3569 15.4775H22.1382V17.515C22.1286 17.531 22.115 17.5467 22.1065 17.562H22.1382V17.515C22.7735 16.5374 23.9065 15.1399 26.4467 15.1399C29.5919 15.1399 31.9499 17.1948 31.9499 21.6103ZM12.3557 8.54675C10.7203 8.54675 9.65039 9.62023 9.65039 11.0306C9.65039 12.4111 10.6893 13.5156 12.2929 13.5156H12.3239C13.9914 13.5156 15.0281 12.4111 15.0281 11.0306C14.9964 9.62023 13.9914 8.54675 12.3557 8.54675ZM9.93454 29.8559H14.7137V15.4775H9.93454V29.8559Z" fill="#349E5B"/>
</svg>
