<svg width="40" height="40" viewBox="0 0 40 40" fill="none" xmlns="http://www.w3.org/2000/svg">
<path d="M20 40C31.0457 40 40 31.0457 40 20C40 8.95431 31.0457 0 20 0C8.95431 0 0 8.95431 0 20C0 31.0457 8.95431 40 20 40Z" fill="white"/>
<path d="M32.2525 14.3735C31.3955 14.7536 30.4735 15.0106 29.5066 15.1254C30.4938 14.5339 31.2514 13.5981 31.609 12.4811C30.6853 13.0291 29.6617 13.4266 28.5733 13.6409C27.7012 12.7121 26.4587 12.1317 25.0829 12.1317C22.4433 12.1317 20.3024 14.2726 20.3024 16.9123C20.3024 17.287 20.3448 17.6517 20.4268 18.0018C16.4538 17.8025 12.931 15.8994 10.573 13.0063C10.1616 13.7122 9.92554 14.5339 9.92554 15.4099C9.92554 17.0681 10.7701 18.5319 12.0522 19.389C11.2689 19.3644 10.5313 19.1494 9.88703 18.7904C9.88668 18.8107 9.88668 18.8311 9.88668 18.851C9.88668 21.1673 11.5352 23.0993 13.7218 23.5382C13.321 23.648 12.8978 23.7061 12.4625 23.7061C12.1538 23.7061 11.8547 23.6765 11.563 23.6209C12.1712 25.5197 13.9364 26.9019 16.0288 26.9408C14.3924 28.2232 12.3313 28.9872 10.091 28.9872C9.70592 28.9872 9.32445 28.9648 8.95117 28.9202C11.0657 30.2771 13.5791 31.0682 16.2787 31.0682C25.0719 31.0682 29.8806 23.7838 29.8806 17.466C29.8806 17.2588 29.876 17.0524 29.8667 16.8477C30.8015 16.1739 31.6119 15.3322 32.2525 14.3735Z" fill="#349E5B"/>
</svg>
